name GIL12_xslow1.mot
datacolumns 153
datarows 4
range 0.58333343 0.60833347
endheader

                time	           pelvis_tx	           pelvis_ty	           pelvis_tz	         pelvis_tilt	         pelvis_list	     pelvis_rotation	       hip_flexion_r	     hip_adduction_r	      hip_rotation_r	        knee_angle_r	       ankle_angle_r	    subtalar_angle_r	         mtp_angle_r	       hip_flexion_l	     hip_adduction_l	      hip_rotation_l	        knee_angle_l	       ankle_angle_l	    subtalar_angle_l	         mtp_angle_l	    lumbar_extension	      lumbar_bending	     lumbar_rotation	     ground_force_vx	     ground_force_vy	     ground_force_vz	     ground_force_px	     ground_force_py	     ground_force_pz	     ground_force_vx	     ground_force_vy	     ground_force_vz	     ground_force_px	     ground_force_py	     ground_force_pz	     ground_torque_x	     ground_torque_y	     ground_torque_z	     ground_torque_x	     ground_torque_y	     ground_torque_z	    ground_marker_px	    ground_marker_py	    ground_marker_pz	    ground_marker_px	    ground_marker_py	    ground_marker_pz	    ground_marker_px	    ground_marker_py	    ground_marker_pz	    ground_marker_px	    ground_marker_py	    ground_marker_pz	    ground_marker_px	    ground_marker_py	    ground_marker_pz	    ground_marker_px	    ground_marker_py	    ground_marker_pz	    ground_marker_px	    ground_marker_py	    ground_marker_pz	    ground_marker_px	    ground_marker_py	    ground_marker_pz	    ground_marker_px	    ground_marker_py	    ground_marker_pz	    ground_marker_px	    ground_marker_py	    ground_marker_pz	    ground_marker_px	    ground_marker_py	    ground_marker_pz	    ground_marker_px	    ground_marker_py	    ground_marker_pz	    ground_marker_px	    ground_marker_py	    ground_marker_pz	    ground_marker_px	    ground_marker_py	    ground_marker_pz	    ground_marker_px	    ground_marker_py	    ground_marker_pz	    ground_marker_px	    ground_marker_py	    ground_marker_pz	    ground_marker_px	    ground_marker_py	    ground_marker_pz	    ground_marker_px	    ground_marker_py	    ground_marker_pz	    ground_marker_px	    ground_marker_py	    ground_marker_pz	    ground_marker_px	    ground_marker_py	    ground_marker_pz	    ground_marker_px	    ground_marker_py	    ground_marker_pz	    ground_marker_px	    ground_marker_py	    ground_marker_pz	    ground_marker_px	    ground_marker_py	    ground_marker_pz	    ground_marker_px	    ground_marker_py	    ground_marker_pz	    ground_marker_px	    ground_marker_py	    ground_marker_pz	    ground_marker_px	    ground_marker_py	    ground_marker_pz	    ground_marker_px	    ground_marker_py	    ground_marker_pz	    ground_marker_px	    ground_marker_py	    ground_marker_pz	    ground_marker_px	    ground_marker_py	    ground_marker_pz	    ground_marker_px	    ground_marker_py	    ground_marker_pz	    ground_marker_px	    ground_marker_py	    ground_marker_pz	    ground_marker_px	    ground_marker_py	    ground_marker_pz	    ground_marker_px	    ground_marker_py	    ground_marker_pz	    ground_marker_px	    ground_marker_py	    ground_marker_pz	    ground_marker_px	    ground_marker_py	    ground_marker_pz	    ground_marker_px	    ground_marker_py	    ground_marker_pz	    ground_marker_px	    ground_marker_py	    ground_marker_pz	
          0.58333343	          1.60282159	          0.71299434	         -0.19656652	         16.48087311	         -4.01853466	         -8.81616592	         18.81417274	         -0.66908789	         -2.40232825	         -2.83971429	         -5.21879387	          0.00000000	          0.00000000	        -19.72186089	          2.73662996	         -5.05625772	         -7.10591745	          9.14507484	          0.00000000	          0.00000000	        -29.28384781	         -4.22207212	          1.79283774	          0.00000000	          0.00000000	          0.00000000	          1.93643616	          0.00000000	         -0.09646765	         -2.29141286	        237.89411246	          5.57628357	          1.56849146	          0.00000000	         -0.22342592	          0.00000000	          0.00000000	          0.00000000	          0.00000000	         -0.27482605	          0.00000000	          1.56954086	          0.63035214	         -0.19118857	          1.56328392	          0.64645755	         -0.13948914	          1.58186448	          0.63975549	         -0.25526118	          1.73581076	          0.40147477	         -0.09402756	          1.56313264	          0.34212026	         -0.22652599	          1.89058244	          0.15539810	         -0.04695064	          1.51070964	          0.05516106	         -0.22287539	          1.60282159	          0.71299434	         -0.19656652	          1.58893633	          0.71800280	         -0.11004987	          1.61670673	          0.70798582	         -0.28308317	          1.46196187	          0.70377785	         -0.16986245	          1.47456157	          0.69899100	         -0.25349760	          1.72668064	          0.40340367	         -0.04898404	          1.56639218	          0.33731499	         -0.27417350	          1.74135673	          0.39693296	         -0.13383153	          1.55279744	          0.34953031	         -0.18593362	          1.87993503	          0.15477680	         -0.01519378	          1.50428104	          0.05593029	         -0.25472397	          1.89519835	          0.15992410	         -0.07335375	          1.50428748	          0.05552234	         -0.18933126	          1.50950813	          1.03158247	         -0.24312809	          1.59668529	          0.97148472	         -0.17992187	          1.60687435	          0.96034890	         -0.26964548	          1.58623385	          0.97942346	         -0.22037977	          1.63000536	          0.84534740	         -0.20400295	          1.78118801	          0.54597682	         -0.11575942	          1.64189661	          0.41622007	         -0.33091101	          1.69001830	          0.54927373	         -0.08656102	          1.63176560	          0.47642159	         -0.25329491	          1.72995925	          0.47255459	         -0.07057513	          1.61766934	          0.39469695	         -0.22997095	          1.84453273	          0.23967640	          0.04264438	          1.61874735	          0.14871760	         -0.19290181	          1.80906141	          0.28410494	         -0.02734287	          1.56762278	          0.21105433	         -0.21981777	          1.97287023	          0.18605506	         -0.03074270	          1.59409261	          0.03670141	         -0.21762908	
          0.59166676	          1.60559893	          0.71295989	         -0.19682498	         16.56999969	         -4.10262871	         -8.45813942	         19.36137009	         -0.64562970	         -2.36815119	         -2.36348128	         -5.58403254	          0.00000000	          0.00000000	        -20.08948135	          2.63771582	         -5.27308273	         -7.02799034	          9.34567642	          0.00000000	          0.00000000	        -29.59212494	         -4.04783583	          1.59107113	          0.00000000	          0.00000000	          0.00000000	          1.93684290	          0.00000000	         -0.09657652	         -1.66953743	        235.97138909	          5.43868062	          1.56967908	          0.00000000	         -0.22320840	          0.00000000	          0.00000000	          0.00000000	          0.00000000	         -0.32584619	          0.00000000	          1.57246542	          0.63030851	         -0.19095713	          1.56648457	          0.64649129	         -0.13937780	          1.58436644	          0.63958311	         -0.25524771	          1.74192536	          0.40345567	         -0.09435082	          1.56432438	          0.34199947	         -0.22662225	          1.90162563	          0.16060315	         -0.04755286	          1.51079917	          0.05517605	         -0.22284238	          1.60559893	          0.71295989	         -0.19682498	          1.59224677	          0.71811813	         -0.11030662	          1.61895120	          0.70780164	         -0.28334334	          1.46485281	          0.70366633	         -0.16902398	          1.47702265	          0.69870132	         -0.25276738	          1.73310697	          0.40544611	         -0.04924789	          1.56711030	          0.33722532	         -0.27430293	          1.74699318	          0.39867246	         -0.13390169	          1.55420280	          0.34933597	         -0.18596786	          1.89123869	          0.15990856	         -0.01571140	          1.50428259	          0.05597267	         -0.25467238	          1.90630138	          0.16537157	         -0.07420290	          1.50428247	          0.05557090	         -0.18923619	          1.51325345	          1.03145885	         -0.24223092	          1.60036099	          0.97096014	         -0.17931552	          1.61035311	          0.95988613	         -0.26903859	          1.58990395	          0.97897220	         -0.21975891	          1.63319325	          0.84473336	         -0.20357059	          1.78547430	          0.54825121	         -0.11689879	          1.64244413	          0.41564518	         -0.33160150	          1.69475472	          0.55085051	         -0.08720225	          1.63324869	          0.47584143	         -0.25395104	          1.73535657	          0.47459808	         -0.07102211	          1.61892581	          0.39418757	         -0.23054907	          1.85468769	          0.24437287	          0.04217279	          1.61918926	          0.14838323	         -0.19320704	          1.81793475	          0.28776616	         -0.02761780	          1.56821871	          0.21094641	         -0.22000207	          1.98374891	          0.19241118	         -0.03181732	          1.59408414	          0.03669802	         -0.21770296	
          0.60000008	          1.60841966	          0.71284437	         -0.19713932	         16.63067055	         -4.17873716	         -8.06895161	         19.87203026	         -0.66983026	         -2.32210994	         -1.80760038	         -5.87987185	          0.00000000	          0.00000000	        -20.38238716	          2.54255366	         -5.58755875	         -7.02479219	          9.59600067	          0.00000000	          0.00000000	        -29.84136200	         -3.83803105	          1.42177343	          0.00000000	          0.00000000	          0.00000000	          1.93724426	          0.00000000	         -0.09666267	         -1.04108131	        235.54096305	          5.27276333	          1.57069238	          0.00000000	         -0.22293533	          0.00000000	          0.00000000	          0.00000000	          0.00000000	         -0.38688379	          0.00000000	          1.57542789	          0.63020039	         -0.19078660	          1.56972611	          0.64646131	         -0.13930953	          1.58684146	          0.63934654	         -0.25528264	          1.74778116	          0.40517250	         -0.09464012	          1.56572104	          0.34183273	         -0.22668703	          1.91242635	          0.16566515	         -0.04823487	          1.51089787	          0.05518122	         -0.22277914	          1.60841966	          0.71284437	         -0.19713932	          1.59564769	          0.71815354	         -0.11059720	          1.62119150	          0.70753515	         -0.28368145	          1.46779597	          0.70356745	         -0.16815194	          1.47951758	          0.69839394	         -0.25200099	          1.73928547	          0.40726373	         -0.04947984	          1.56792629	          0.33709010	         -0.27440122	          1.75207686	          0.40005386	         -0.13387378	          1.55581653	          0.34893742	         -0.18616459	          1.90231419	          0.16489987	         -0.01630670	          1.50429654	          0.05601006	         -0.25459087	          1.91712511	          0.17068264	         -0.07518049	          1.50428534	          0.05557399	         -0.18910384	          1.51704454	          1.03126299	         -0.24124625	          1.60412335	          0.97033381	         -0.17874046	          1.61382663	          0.95939058	         -0.26841432	          1.59364009	          0.97849214	         -0.21914999	          1.63644040	          0.84403986	         -0.20325205	          1.78959858	          0.55019343	         -0.11808403	          1.64288557	          0.41503888	         -0.33241150	          1.69929302	          0.55217767	         -0.08763845	          1.63478565	          0.47520182	         -0.25469264	          1.74044907	          0.47626787	         -0.07133479	          1.62028682	          0.39355743	         -0.23133419	          1.86461842	          0.24890798	          0.04163895	          1.61968422	          0.14796214	         -0.19347848	          1.82662606	          0.29124400	         -0.02798551	          1.56903207	          0.21077825	         -0.22015581	          1.99430656	          0.19872627	         -0.03308447	          1.59408247	          0.03669945	         -0.21775717	
          0.60833347	          1.61127198	          0.71264791	         -0.19748084	         16.66299248	         -4.24334192	         -7.65691519	         20.34959030	         -0.73345476	         -2.23877740	         -1.17839980	         -6.11223555	          0.00000000	          0.00000000	        -20.60090256	          2.45229673	         -5.97517014	         -7.09711838	          9.89416122	          0.00000000	          0.00000000	        -30.01812744	         -3.61842203	          1.27731025	          0.00000000	          0.00000000	          0.00000000	          1.93762524	          0.00000000	         -0.09675063	         -0.45598462	        236.46637324	          5.12343956	          1.57167163	          0.00000000	         -0.22259738	          0.00000000	          0.00000000	          0.00000000	          0.00000000	         -0.45114075	          0.00000000	          1.57842004	          0.63002527	         -0.19067124	          1.57299018	          0.64636236	         -0.13926636	          1.58928716	          0.63905042	         -0.25534508	          1.75338268	          0.40662587	         -0.09491093	          1.56731880	          0.34161869	         -0.22672318	          1.92296505	          0.17057289	         -0.04897151	          1.51100457	          0.05518010	         -0.22269094	          1.61127198	          0.71264791	         -0.19748084	          1.59911525	          0.71810228	         -0.11089102	          1.62342870	          0.70719349	         -0.28407067	          1.47079837	          0.70346797	         -0.16725028	          1.48205459	          0.69808191	         -0.25120088	          1.74523365	          0.40886000	         -0.04969365	          1.56886256	          0.33691031	         -0.27446672	          1.75683761	          0.40110096	         -0.13377197	          1.55770361	          0.34848076	         -0.18637936	          1.91312671	          0.16973491	         -0.01695972	          1.50432408	          0.05604590	         -0.25448516	          1.92762303	          0.17569000	         -0.07594948	          1.50439751	          0.05559146	         -0.18900259	          1.52074981	          1.03106642	         -0.24015518	          1.60803151	          0.96967858	         -0.17818016	          1.61738646	          0.95888197	         -0.26790038	          1.59743965	          0.97798860	         -0.21855742	          1.63992643	          0.84334725	         -0.20304225	          1.79356825	          0.55182993	         -0.11935678	          1.64327300	          0.41441014	         -0.33329487	          1.70361698	          0.55321586	         -0.08798683	          1.63639331	          0.47449654	         -0.25562567	          1.74532282	          0.47761148	         -0.07158214	          1.62180972	          0.39291847	         -0.23227845	          1.87426269	          0.25325510	          0.04105167	          1.62023008	          0.14746377	         -0.19371375	          1.83505583	          0.29456645	         -0.02842840	          1.56983626	          0.21053419	         -0.22029096	          2.00451040	          0.20496820	         -0.03452047	          1.59408927	          0.03670649	         -0.21778904	
